<?xml version="1.0" standalone="no"?>
<!DOCTYPE svg PUBLIC "-//W3C//DTD SVG 20010904//EN"
 "http://www.w3.org/TR/2001/REC-SVG-20010904/DTD/svg10.dtd">
<svg version="1.0" xmlns="http://www.w3.org/2000/svg"
 width="386.000000pt" height="386.000000pt" viewBox="0 0 386.000000 386.000000"
 preserveAspectRatio="xMidYMid meet">
<metadata>
Created by potrace 1.14, written by Peter Selinger 2001-2017
</metadata>
<g transform="translate(0.000000,386.000000) scale(0.100000,-0.100000)"
fill="#000000" stroke="none">
<path d="M1208 3551 l-154 -156 -88 -30 c-81 -27 -95 -35 -152 -94 -76 -78
-94 -126 -74 -196 10 -36 33 -66 106 -142 62 -64 94 -104 94 -119 0 -24 -39
-74 -130 -165 -50 -49 -59 -66 -84 -145 -20 -62 -38 -100 -61 -124 -54 -58
-59 -87 -60 -375 -1 -239 -3 -264 -22 -306 -11 -25 -32 -57 -45 -70 -14 -13
-32 -45 -41 -71 -19 -58 -16 -179 6 -231 9 -21 67 -89 134 -157 l117 -119 92
-32 92 -31 15 -57 c13 -43 16 -96 14 -225 -3 -217 7 -251 89 -336 84 -85 110
-92 343 -92 231 0 240 3 363 130 72 73 96 92 135 103 63 18 148 18 202 1 55
-18 73 -57 77 -161 4 -115 17 -149 88 -223 85 -89 123 -101 299 -96 155 4 172
11 258 101 72 76 83 111 82 276 -1 141 -15 197 -61 240 -41 40 -61 107 -58
193 1 40 8 89 15 109 11 34 17 38 104 68 l93 32 117 119 c65 67 124 136 133
157 39 93 20 249 -38 306 -60 60 -61 69 -62 552 -1 396 0 445 16 489 14 40 45
77 165 198 124 125 151 157 165 199 17 48 16 53 -1 99 -12 31 -40 71 -77 108
-53 53 -68 63 -146 88 l-88 28 -155 157 c-192 194 -179 191 -305 61 -119 -121
-118 -121 -239 1 -120 122 -120 122 -243 0 -124 -123 -126 -123 -242 -1 -119
125 -121 125 -241 2 -121 -123 -120 -123 -241 -3 -131 130 -117 133 -306 -60z"/>
</g>
</svg>
